<svg version="1.1" id="Layer_1" xmlns="http://www.w3.org/2000/svg" xmlns:xlink="http://www.w3.org/1999/xlink" x="0px" y="0px"
	 width="100%" viewBox="0 0 2048 2048" enable-background="new 0 0 2048 2048" xml:space="preserve">
<path fill="#FFFFFF" opacity="1.000000" stroke="none" 
	d="
M1081.000000,2049.000000 
	C720.666687,2049.000000 360.833344,2049.000000 1.000000,2049.000000 
	C1.000000,1366.333374 1.000000,683.666687 1.000000,1.000000 
	C683.666687,1.000000 1366.333374,1.000000 2049.000000,1.000000 
	C2049.000000,683.666687 2049.000000,1366.333374 2049.000000,2049.000000 
	C1726.500000,2049.000000 1404.000000,2049.000000 1081.000000,2049.000000 
M654.714966,1946.877686 
	C655.339294,1947.083496 655.976685,1947.256592 656.586121,1947.499756 
	C757.097656,1987.621704 861.466919,2010.730591 969.436951,2016.702759 
	C1017.839478,2019.379883 1066.394653,2018.828979 1114.701904,2013.921875 
	C1143.232300,2011.023682 1171.756226,2007.466797 1200.017822,2002.650513 
	C1250.599487,1994.030396 1300.086426,1980.855835 1348.591064,1964.010132 
	C1466.789551,1922.959717 1573.755615,1862.214233 1669.063843,1781.131470 
	C1738.472900,1722.081909 1798.569824,1654.648926 1849.367310,1578.965698 
	C1914.291748,1482.235107 1960.938232,1377.326050 1988.726074,1264.230713 
	C1996.256348,1233.583252 2001.637207,1202.367310 2006.976074,1171.235962 
	C2010.562500,1150.322632 2012.858398,1129.145874 2014.764893,1107.999756 
	C2016.363037,1090.274902 2016.610596,1072.426025 2017.369507,1054.628296 
	C2018.983032,1016.792908 2018.127197,978.955566 2014.635742,941.300415 
	C2011.896851,911.759827 2007.567871,882.330811 2002.951904,853.008545 
	C1996.024414,809.003967 1984.953247,765.933838 1971.335693,723.531311 
	C1927.537231,587.150574 1857.737427,465.687469 1761.863037,359.269470 
	C1682.324829,270.984253 1589.697632,199.529053 1484.430664,144.451523 
	C1380.788940,90.224335 1270.869751,55.561337 1154.977905,40.318707 
	C1123.205566,36.139854 1091.110962,33.718742 1059.084473,32.328991 
	C1013.298096,30.342154 967.459656,31.855789 921.930176,37.312893 
	C892.167358,40.880226 862.487488,45.554920 833.015991,51.050491 
	C772.266541,62.378487 713.044922,79.426758 655.752991,102.619591 
	C495.653595,167.430679 360.655548,266.531250 252.009872,400.905579 
	C163.583206,510.272797 101.566986,633.276428 65.012177,769.084290 
	C54.334850,808.752502 45.893230,848.905090 40.932823,889.704529 
	C37.906094,914.599426 34.875259,939.541565 33.322388,964.554077 
	C31.868290,987.975708 32.311836,1011.517456 32.004860,1035.007446 
	C31.501631,1073.514526 34.026749,1111.891479 39.362267,1149.968384 
	C43.541035,1179.790161 48.905205,1209.499512 55.090115,1238.975952 
	C70.947029,1314.548340 96.492577,1386.902466 130.083511,1456.376343 
	C195.578094,1591.834473 287.301666,1706.510010 404.516296,1800.738892 
	C480.394958,1861.737671 563.757019,1910.078735 654.714966,1946.877686 
M991.556274,2018.927490 
	C988.422180,2018.927490 985.288086,2018.927490 982.153992,2018.927490 
	C982.156372,2019.200684 982.158813,2019.473755 982.161194,2019.746948 
	C1011.042542,2019.746948 1039.923828,2019.746948 1068.805176,2019.746948 
	C1068.806030,2019.472046 1068.806885,2019.197266 1068.807617,2018.922363 
	C1043.384888,2018.922363 1017.962036,2018.922363 991.556274,2018.927490 
z"/>
<path fill="#000000" opacity="1.000000" stroke="none" 
	d="
M654.369995,1946.701782 
	C563.757019,1910.078735 480.394958,1861.737671 404.516296,1800.738892 
	C287.301666,1706.510010 195.578094,1591.834473 130.083511,1456.376343 
	C96.492577,1386.902466 70.947029,1314.548340 55.090115,1238.975952 
	C48.905205,1209.499512 43.541035,1179.790161 39.362267,1149.968384 
	C34.026749,1111.891479 31.501631,1073.514526 32.004860,1035.007446 
	C32.311836,1011.517456 31.868290,987.975708 33.322388,964.554077 
	C34.875259,939.541565 37.906094,914.599426 40.932823,889.704529 
	C45.893230,848.905090 54.334850,808.752502 65.012177,769.084290 
	C101.566986,633.276428 163.583206,510.272797 252.009872,400.905579 
	C360.655548,266.531250 495.653595,167.430679 655.752991,102.619591 
	C713.044922,79.426758 772.266541,62.378487 833.015991,51.050491 
	C862.487488,45.554920 892.167358,40.880226 921.930176,37.312893 
	C967.459656,31.855789 1013.298096,30.342154 1059.084473,32.328991 
	C1091.110962,33.718742 1123.205566,36.139854 1154.977905,40.318707 
	C1270.869751,55.561337 1380.788940,90.224335 1484.430664,144.451523 
	C1589.697632,199.529053 1682.324829,270.984253 1761.863037,359.269470 
	C1857.737427,465.687469 1927.537231,587.150574 1971.335693,723.531311 
	C1984.953247,765.933838 1996.024414,809.003967 2002.951904,853.008545 
	C2007.567871,882.330811 2011.896851,911.759827 2014.635742,941.300415 
	C2018.127197,978.955566 2018.983032,1016.792908 2017.369507,1054.628296 
	C2016.610596,1072.426025 2016.363037,1090.274902 2014.764893,1107.999756 
	C2012.858398,1129.145874 2010.562500,1150.322632 2006.976074,1171.235962 
	C2001.637207,1202.367310 1996.256348,1233.583252 1988.726074,1264.230713 
	C1960.938232,1377.326050 1914.291748,1482.235107 1849.367310,1578.965698 
	C1798.569824,1654.648926 1738.472900,1722.081909 1669.063843,1781.131470 
	C1573.755615,1862.214233 1466.789551,1922.959717 1348.591064,1964.010132 
	C1300.086426,1980.855835 1250.599487,1994.030396 1200.017822,2002.650513 
	C1171.756226,2007.466797 1143.232300,2011.023682 1114.701904,2013.921875 
	C1066.394653,2018.828979 1017.839478,2019.379883 969.436951,2016.702759 
	C861.466919,2010.730591 757.097656,1987.621704 656.586121,1947.499756 
	C655.976685,1947.256592 655.339294,1947.083496 654.369995,1946.701782 
M1008.500000,504.965424 
	C852.850342,504.969116 697.200745,504.969910 541.551086,504.990997 
	C537.054993,504.991608 532.558594,505.197784 528.062866,505.326111 
	C525.073669,505.411377 523.939453,507.004211 524.376221,509.891449 
	C524.897522,513.337708 525.508911,516.776794 525.860046,520.241394 
	C528.236328,543.686340 530.683105,567.125305 532.854919,590.589478 
	C535.055542,614.364990 536.969910,638.166992 539.001221,661.958191 
	C539.974731,673.359863 540.861572,684.769348 541.905396,696.164490 
	C544.191589,721.122437 546.630188,746.066589 548.861572,771.029297 
	C551.003540,794.991516 553.046509,818.963318 554.956543,842.945007 
	C555.630066,851.401001 555.425171,859.933228 556.246155,868.369873 
	C557.947754,885.856812 560.180054,903.291565 561.969666,920.770752 
	C562.901245,929.869690 563.263245,939.025391 564.045044,948.141541 
	C565.603699,966.315857 567.341858,984.474854 568.878174,1002.651001 
	C570.136902,1017.542175 571.024353,1032.466309 572.414062,1047.344360 
	C574.096008,1065.350098 576.256775,1083.310913 577.961304,1101.314697 
	C578.729248,1109.425659 578.627686,1117.618652 579.386292,1125.730713 
	C581.067139,1143.704834 583.203308,1161.636597 584.848389,1179.613647 
	C586.240662,1194.827881 587.019287,1210.098022 588.403992,1225.313110 
	C590.058655,1243.494263 592.206116,1261.630493 593.891479,1279.809204 
	C596.097229,1303.600098 598.146240,1327.406494 600.078003,1351.221191 
	C600.723450,1359.178467 600.457336,1367.213989 601.207825,1375.157227 
	C602.987366,1393.991333 605.219727,1412.782471 607.069702,1431.610474 
	C607.736572,1438.397827 607.625061,1445.259766 608.230164,1452.055420 
	C610.023621,1472.197266 612.417419,1492.297119 613.656921,1512.470093 
	C614.054688,1518.942139 616.010437,1522.770020 621.811157,1524.957886 
	C635.019287,1529.939087 648.153320,1535.124390 661.432739,1539.906738 
	C680.141907,1546.644165 698.939453,1553.138306 717.729797,1559.648071 
	C731.534302,1564.430664 745.393127,1569.056152 759.217224,1573.782471 
	C766.050476,1576.118774 772.837463,1578.591919 779.687073,1580.878174 
	C785.723877,1582.893311 791.846924,1584.650269 797.880371,1586.674927 
	C804.908630,1589.033325 811.845337,1591.666748 818.886658,1593.983765 
	C827.716431,1596.889404 836.616638,1599.580811 845.477722,1602.392090 
	C850.337830,1603.933960 855.179626,1605.533813 860.030518,1607.104858 
	C867.342529,1609.473145 874.694580,1611.725464 881.957275,1614.236328 
	C890.018372,1617.023315 897.941467,1620.214111 906.026672,1622.925171 
	C917.804871,1626.874390 929.698730,1630.477661 941.495667,1634.372681 
	C948.809753,1636.787720 955.999695,1639.578003 963.310730,1642.002930 
	C972.005371,1644.886963 980.802795,1647.461182 989.494141,1650.354370 
	C996.780334,1652.779785 1003.938538,1655.590698 1011.233521,1657.987061 
	C1014.341309,1659.008057 1017.868225,1660.471558 1020.828796,1659.873413 
	C1027.521240,1658.521118 1034.025513,1656.145874 1040.522095,1653.938843 
	C1048.601685,1651.193848 1056.557861,1648.086182 1064.638306,1645.343872 
	C1072.820679,1642.566772 1081.114990,1640.120483 1089.313477,1637.389038 
	C1097.108154,1634.791992 1104.817749,1631.940552 1112.609497,1629.334473 
	C1120.975342,1626.536377 1129.413452,1623.954468 1137.782349,1621.165039 
	C1145.262085,1618.671875 1152.671387,1615.967651 1160.147461,1613.463745 
	C1166.027588,1611.494141 1171.984009,1609.753052 1177.867310,1607.792603 
	C1185.201172,1605.348877 1192.472778,1602.718262 1199.811279,1600.288818 
	C1208.163086,1597.523926 1216.574829,1594.940796 1224.930908,1592.188599 
	C1232.890869,1589.566895 1240.798584,1586.786133 1248.756958,1584.159668 
	C1253.395142,1582.628784 1258.129517,1581.384277 1262.747314,1579.797607 
	C1270.837769,1577.017334 1278.836426,1573.968750 1286.939575,1571.227417 
	C1294.388916,1568.707397 1301.976074,1566.591553 1309.409058,1564.026489 
	C1317.333984,1561.291748 1325.108398,1558.122925 1333.022217,1555.353760 
	C1343.991089,1551.515747 1355.053101,1547.943848 1366.029907,1544.127930 
	C1376.262085,1540.570923 1386.470337,1536.938232 1396.623291,1533.162109 
	C1404.804077,1530.119629 1412.903564,1526.855225 1420.988770,1523.565063 
	C1421.865967,1523.208008 1422.904785,1522.097656 1423.028198,1521.218750 
	C1424.157593,1513.176636 1425.281860,1505.125854 1426.063232,1497.044434 
	C1428.157227,1475.387695 1430.093262,1453.715820 1432.067261,1432.047607 
	C1433.105469,1420.650391 1434.125854,1409.251099 1435.093506,1397.847534 
	C1436.467651,1381.651489 1437.806030,1365.452271 1439.116455,1349.250854 
	C1439.572632,1343.610474 1439.743042,1337.943604 1440.315918,1332.316528 
	C1442.147217,1314.329712 1444.296875,1296.373291 1445.958862,1278.371582 
	C1447.439209,1262.338745 1448.241333,1246.243652 1449.695312,1230.207886 
	C1451.295532,1212.558716 1453.487183,1194.962891 1455.069214,1177.312256 
	C1456.478760,1161.585938 1457.293213,1145.807129 1458.586060,1130.069214 
	C1459.576904,1118.009399 1460.878418,1105.974731 1462.092041,1093.933960 
	C1462.706787,1087.834961 1463.595581,1081.759521 1464.068237,1075.651001 
	C1464.695679,1067.540771 1464.844116,1059.391846 1465.543091,1051.289307 
	C1466.968506,1034.766479 1468.692139,1018.269653 1470.159790,1001.750244 
	C1471.042847,991.811401 1471.446411,981.826660 1472.471802,971.904541 
	C1474.158936,955.580261 1476.493896,939.318787 1477.967529,922.977783 
	C1479.561768,905.301697 1480.313477,887.551392 1481.738770,869.858093 
	C1483.471313,848.352966 1485.397949,826.861450 1487.473633,805.386597 
	C1489.486084,784.565674 1492.044556,763.795715 1493.904053,742.962341 
	C1495.924438,720.326904 1497.259155,697.630981 1499.178955,674.985657 
	C1501.310303,649.845947 1503.887329,624.744263 1506.037964,599.606079 
	C1507.623657,581.070679 1508.798462,562.500366 1510.237549,543.951965 
	C1510.712769,537.827881 1511.479126,531.726929 1512.043213,525.609009 
	C1512.551636,520.095398 1512.965820,514.573120 1513.463379,508.547760 
	C1344.773926,504.939362 1177.132812,505.476471 1008.500000,504.965424 
z"/>
<path fill="#C0C0C0" opacity="1.000000" stroke="none" 
	d="
M992.047729,2018.924927 
	C1017.962036,2018.922363 1043.384888,2018.922363 1068.807617,2018.922363 
	C1068.806885,2019.197266 1068.806030,2019.472046 1068.805176,2019.746948 
	C1039.923828,2019.746948 1011.042542,2019.746948 982.161194,2019.746948 
	C982.158813,2019.473755 982.156372,2019.200684 982.153992,2018.927490 
	C985.288086,2018.927490 988.422180,2018.927490 992.047729,2018.924927 
z"/>
<path fill="#FFFFFF" opacity="1.000000" stroke="none" 
	d="
M1009.000000,504.965851 
	C1177.132812,505.476471 1344.773926,504.939362 1513.463379,508.547760 
	C1512.965820,514.573120 1512.551636,520.095398 1512.043213,525.609009 
	C1511.479126,531.726929 1510.712769,537.827881 1510.237549,543.951965 
	C1508.798462,562.500366 1507.623657,581.070679 1506.037964,599.606079 
	C1503.887329,624.744263 1501.310303,649.845947 1499.178955,674.985657 
	C1497.259155,697.630981 1495.924438,720.326904 1493.904053,742.962341 
	C1492.044556,763.795715 1489.486084,784.565674 1487.473633,805.386597 
	C1485.397949,826.861450 1483.471313,848.352966 1481.738770,869.858093 
	C1480.313477,887.551392 1479.561768,905.301697 1477.967529,922.977783 
	C1476.493896,939.318787 1474.158936,955.580261 1472.471802,971.904541 
	C1471.446411,981.826660 1471.042847,991.811401 1470.159790,1001.750244 
	C1468.692139,1018.269653 1466.968506,1034.766479 1465.543091,1051.289307 
	C1464.844116,1059.391846 1464.695679,1067.540771 1464.068237,1075.651001 
	C1463.595581,1081.759521 1462.706787,1087.834961 1462.092041,1093.933960 
	C1460.878418,1105.974731 1459.576904,1118.009399 1458.586060,1130.069214 
	C1457.293213,1145.807129 1456.478760,1161.585938 1455.069214,1177.312256 
	C1453.487183,1194.962891 1451.295532,1212.558716 1449.695312,1230.207886 
	C1448.241333,1246.243652 1447.439209,1262.338745 1445.958862,1278.371582 
	C1444.296875,1296.373291 1442.147217,1314.329712 1440.315918,1332.316528 
	C1439.743042,1337.943604 1439.572632,1343.610474 1439.116455,1349.250854 
	C1437.806030,1365.452271 1436.467651,1381.651489 1435.093506,1397.847534 
	C1434.125854,1409.251099 1433.105469,1420.650391 1432.067261,1432.047607 
	C1430.093262,1453.715820 1428.157227,1475.387695 1426.063232,1497.044434 
	C1425.281860,1505.125854 1424.157593,1513.176636 1423.028198,1521.218750 
	C1422.904785,1522.097656 1421.865967,1523.208008 1420.988770,1523.565063 
	C1412.903564,1526.855225 1404.804077,1530.119629 1396.623291,1533.162109 
	C1386.470337,1536.938232 1376.262085,1540.570923 1366.029907,1544.127930 
	C1355.053101,1547.943848 1343.991089,1551.515747 1333.022217,1555.353760 
	C1325.108398,1558.122925 1317.333984,1561.291748 1309.409058,1564.026489 
	C1301.976074,1566.591553 1294.388916,1568.707397 1286.939575,1571.227417 
	C1278.836426,1573.968750 1270.837769,1577.017334 1262.747314,1579.797607 
	C1258.129517,1581.384277 1253.395142,1582.628784 1248.756958,1584.159668 
	C1240.798584,1586.786133 1232.890869,1589.566895 1224.930908,1592.188599 
	C1216.574829,1594.940796 1208.163086,1597.523926 1199.811279,1600.288818 
	C1192.472778,1602.718262 1185.201172,1605.348877 1177.867310,1607.792603 
	C1171.984009,1609.753052 1166.027588,1611.494141 1160.147461,1613.463745 
	C1152.671387,1615.967651 1145.262085,1618.671875 1137.782349,1621.165039 
	C1129.413452,1623.954468 1120.975342,1626.536377 1112.609497,1629.334473 
	C1104.817749,1631.940552 1097.108154,1634.791992 1089.313477,1637.389038 
	C1081.114990,1640.120483 1072.820679,1642.566772 1064.638306,1645.343872 
	C1056.557861,1648.086182 1048.601685,1651.193848 1040.522095,1653.938843 
	C1034.025513,1656.145874 1027.521240,1658.521118 1020.828796,1659.873413 
	C1017.868225,1660.471558 1014.341309,1659.008057 1011.233521,1657.987061 
	C1003.938538,1655.590698 996.780334,1652.779785 989.494141,1650.354370 
	C980.802795,1647.461182 972.005371,1644.886963 963.310730,1642.002930 
	C955.999695,1639.578003 948.809753,1636.787720 941.495667,1634.372681 
	C929.698730,1630.477661 917.804871,1626.874390 906.026672,1622.925171 
	C897.941467,1620.214111 890.018372,1617.023315 881.957275,1614.236328 
	C874.694580,1611.725464 867.342529,1609.473145 860.030518,1607.104858 
	C855.179626,1605.533813 850.337830,1603.933960 845.477722,1602.392090 
	C836.616638,1599.580811 827.716431,1596.889404 818.886658,1593.983765 
	C811.845337,1591.666748 804.908630,1589.033325 797.880371,1586.674927 
	C791.846924,1584.650269 785.723877,1582.893311 779.687073,1580.878174 
	C772.837463,1578.591919 766.050476,1576.118774 759.217224,1573.782471 
	C745.393127,1569.056152 731.534302,1564.430664 717.729797,1559.648071 
	C698.939453,1553.138306 680.141907,1546.644165 661.432739,1539.906738 
	C648.153320,1535.124390 635.019287,1529.939087 621.811157,1524.957886 
	C616.010437,1522.770020 614.054688,1518.942139 613.656921,1512.470093 
	C612.417419,1492.297119 610.023621,1472.197266 608.230164,1452.055420 
	C607.625061,1445.259766 607.736572,1438.397827 607.069702,1431.610474 
	C605.219727,1412.782471 602.987366,1393.991333 601.207825,1375.157227 
	C600.457336,1367.213989 600.723450,1359.178467 600.078003,1351.221191 
	C598.146240,1327.406494 596.097229,1303.600098 593.891479,1279.809204 
	C592.206116,1261.630493 590.058655,1243.494263 588.403992,1225.313110 
	C587.019287,1210.098022 586.240662,1194.827881 584.848389,1179.613647 
	C583.203308,1161.636597 581.067139,1143.704834 579.386292,1125.730713 
	C578.627686,1117.618652 578.729248,1109.425659 577.961304,1101.314697 
	C576.256775,1083.310913 574.096008,1065.350098 572.414062,1047.344360 
	C571.024353,1032.466309 570.136902,1017.542175 568.878174,1002.651001 
	C567.341858,984.474854 565.603699,966.315857 564.045044,948.141541 
	C563.263245,939.025391 562.901245,929.869690 561.969666,920.770752 
	C560.180054,903.291565 557.947754,885.856812 556.246155,868.369873 
	C555.425171,859.933228 555.630066,851.401001 554.956543,842.945007 
	C553.046509,818.963318 551.003540,794.991516 548.861572,771.029297 
	C546.630188,746.066589 544.191589,721.122437 541.905396,696.164490 
	C540.861572,684.769348 539.974731,673.359863 539.001221,661.958191 
	C536.969910,638.166992 535.055542,614.364990 532.854919,590.589478 
	C530.683105,567.125305 528.236328,543.686340 525.860046,520.241394 
	C525.508911,516.776794 524.897522,513.337708 524.376221,509.891449 
	C523.939453,507.004211 525.073669,505.411377 528.062866,505.326111 
	C532.558594,505.197784 537.054993,504.991608 541.551086,504.990997 
	C697.200745,504.969910 852.850342,504.969116 1009.000000,504.965851 
M997.722107,1081.538696 
	C1053.044922,1082.027832 1108.367798,1082.521240 1163.690674,1083.001831 
	C1171.838623,1083.072632 1171.662598,1083.030273 1170.986328,1091.194458 
	C1169.545288,1108.592651 1168.145508,1125.997314 1167.021118,1143.418091 
	C1165.199585,1171.637207 1163.667114,1199.874756 1161.900513,1228.097412 
	C1161.205688,1239.196899 1158.761108,1241.663818 1147.497559,1244.218506 
	C1143.010620,1245.236206 1138.610596,1246.645264 1134.183838,1247.920654 
	C1123.773315,1250.919922 1113.384644,1253.995117 1102.960449,1256.945923 
	C1094.752930,1259.269165 1086.502686,1261.440796 1078.277344,1263.701416 
	C1071.807861,1265.479248 1065.337158,1267.253784 1058.885376,1269.094604 
	C1048.445190,1272.073364 1038.095093,1275.416626 1027.550293,1277.955566 
	C1023.563232,1278.915649 1019.123901,1278.291992 1014.924316,1277.962402 
	C1012.500366,1277.772217 1010.159180,1276.663208 1007.753418,1276.080688 
	C1000.243225,1274.262329 992.698181,1272.584473 985.207520,1270.690308 
	C975.473816,1268.229004 965.801453,1265.524414 956.062439,1263.085693 
	C945.370178,1260.408203 934.606567,1258.014282 923.920959,1255.311646 
	C913.566772,1252.692871 903.392578,1249.093384 892.901123,1247.400146 
	C887.605286,1246.545410 886.352844,1244.440552 885.946045,1240.110474 
	C884.330811,1222.915771 882.623047,1205.729858 881.037109,1188.532471 
	C879.954712,1176.794922 878.986084,1165.046509 878.032715,1153.297485 
	C877.710815,1149.329712 876.034851,1147.789795 871.750244,1147.789429 
	C839.424377,1147.786865 807.098572,1147.504517 774.772583,1147.328857 
	C767.334656,1147.288452 759.896362,1147.322876 752.465881,1147.322876 
	C752.465881,1157.363159 751.906433,1166.192505 752.581299,1174.926514 
	C754.025940,1193.622192 756.218262,1212.258911 757.900269,1230.938110 
	C759.701965,1250.947021 761.192444,1270.983887 762.965332,1290.995483 
	C764.182251,1304.731079 765.710022,1318.438843 766.972900,1332.170776 
	C767.439209,1337.240601 769.675720,1339.877075 774.916687,1341.176392 
	C786.419434,1344.027710 797.755371,1347.575195 809.100769,1351.031006 
	C818.371033,1353.854736 827.516418,1357.089111 836.790588,1359.899170 
	C845.874939,1362.651855 855.079041,1365.007202 864.180603,1367.705688 
	C873.008484,1370.322998 881.737061,1373.277344 890.575134,1375.857910 
	C899.359985,1378.422852 908.270386,1380.560059 917.045898,1383.154785 
	C926.188660,1385.858032 935.184326,1389.062866 944.340332,1391.716919 
	C952.989990,1394.224243 961.822083,1396.102661 970.471375,1398.611084 
	C986.106567,1403.145142 1001.650208,1407.994019 1017.273376,1412.570312 
	C1019.428406,1413.201416 1021.974609,1413.646484 1024.076050,1413.121826 
	C1036.219116,1410.089600 1048.323486,1406.882690 1060.360229,1403.451172 
	C1069.374756,1400.881226 1078.223999,1397.734253 1087.225830,1395.115967 
	C1097.456909,1392.140259 1107.806274,1389.572144 1118.047241,1386.628540 
	C1126.259277,1384.268188 1134.355591,1381.507202 1142.558594,1379.113281 
	C1152.787231,1376.128296 1163.093750,1373.409790 1173.328369,1370.443604 
	C1184.991211,1367.063477 1196.605347,1363.515747 1208.252563,1360.081177 
	C1218.498413,1357.059570 1228.750244,1354.057129 1239.018799,1351.114014 
	C1247.519165,1348.677734 1256.029175,1346.270752 1264.570190,1343.982544 
	C1271.052368,1342.245972 1276.702515,1340.260498 1277.252563,1331.866699 
	C1278.130249,1318.468628 1279.780396,1305.122803 1280.990723,1291.744629 
	C1282.816772,1271.560791 1284.488892,1251.362915 1286.332520,1231.180664 
	C1287.827148,1214.818481 1289.603760,1198.481323 1291.006348,1182.111816 
	C1291.702271,1173.989746 1291.553589,1165.794067 1292.287964,1157.677002 
	C1293.691284,1142.165283 1295.603760,1126.699463 1297.004150,1111.187378 
	C1297.736816,1103.072144 1297.482056,1094.864746 1298.286377,1086.759766 
	C1299.973877,1069.757446 1302.432251,1052.826660 1303.899658,1035.808472 
	C1305.669067,1015.286865 1306.728394,994.704285 1308.121460,974.149902 
	C1308.385254,970.260742 1308.773071,966.380066 1309.167480,961.745911 
	C1217.402344,960.377502 1126.484497,959.021667 1035.566772,957.665833 
	C1035.528198,957.111023 1035.489746,956.556152 1035.451172,956.001282 
	C1043.638184,952.401733 1051.783569,948.703491 1060.023315,945.229065 
	C1069.236084,941.344360 1078.604614,937.825317 1087.780518,933.857971 
	C1105.787109,926.072144 1123.663452,917.984253 1141.678223,910.217651 
	C1154.277954,904.785706 1167.066284,899.792358 1179.683960,894.400757 
	C1197.404053,886.828979 1215.011963,878.994751 1232.725464,871.407471 
	C1260.508789,859.507080 1288.328491,847.691467 1316.167114,835.921387 
	C1319.326294,834.585754 1320.572144,832.427429 1320.921631,829.143921 
	C1322.549927,813.843933 1324.458862,798.573059 1325.998169,783.264771 
	C1326.713257,776.154114 1326.571411,768.958618 1327.246948,761.842285 
	C1328.642944,747.135437 1330.418945,732.464783 1331.845215,717.760559 
	C1332.409790,711.939087 1331.376343,711.005981 1325.576782,711.004761 
	C1121.252808,710.961914 916.928894,710.944580 712.604980,710.800171 
	C708.175659,710.797058 706.471252,712.079834 706.993042,716.404297 
	C708.639038,730.045227 710.271484,743.687866 711.869568,757.334412 
	C713.585754,771.988647 715.215881,786.653076 716.965027,801.303284 
	C717.886841,809.023071 719.332275,816.696594 719.899109,824.437988 
	C720.445679,831.901611 721.086487,832.894653 728.804199,833.014587 
	C765.627930,833.586853 802.449768,834.332153 839.275452,834.704712 
	C897.767944,835.296570 956.263000,835.623535 1014.756470,836.128479 
	C1018.851685,836.163879 1022.942261,836.742554 1027.034912,837.068604 
	C1019.184021,841.358643 1011.436035,844.756104 1003.615601,847.977844 
	C982.955078,856.489258 962.244141,864.878723 941.591370,873.408936 
	C930.818970,877.858154 920.165344,882.595154 909.388916,887.034302 
	C895.129822,892.908142 880.742798,898.473633 866.520386,904.433228 
	C848.100525,912.151550 829.810730,920.179565 811.418884,927.965454 
	C804.669495,930.822754 797.752930,933.283081 790.976501,936.079163 
	C782.308777,939.655640 773.731201,943.450134 765.067871,947.037415 
	C755.979553,950.800598 746.709229,954.158569 737.806885,958.311707 
	C735.631531,959.326599 733.554565,962.624390 733.236633,965.103882 
	C732.630615,969.829590 733.141541,974.736023 733.508972,979.542847 
	C735.281372,1002.734741 737.095459,1025.923950 739.035522,1049.102295 
	C739.754761,1057.695068 741.187012,1066.237671 741.659668,1074.838013 
	C741.929443,1079.746216 744.204285,1080.225464 748.288208,1080.242920 
	C831.116760,1080.596436 913.944702,1081.073486 997.722107,1081.538696 
z"/>
<path fill="#000000" opacity="1.000000" stroke="none" 
	d="
M997.247437,1081.532227 
	C913.944702,1081.073486 831.116760,1080.596436 748.288208,1080.242920 
	C744.204285,1080.225464 741.929443,1079.746216 741.659668,1074.838013 
	C741.187012,1066.237671 739.754761,1057.695068 739.035522,1049.102295 
	C737.095459,1025.923950 735.281372,1002.734741 733.508972,979.542847 
	C733.141541,974.736023 732.630615,969.829590 733.236633,965.103882 
	C733.554565,962.624390 735.631531,959.326599 737.806885,958.311707 
	C746.709229,954.158569 755.979553,950.800598 765.067871,947.037415 
	C773.731201,943.450134 782.308777,939.655640 790.976501,936.079163 
	C797.752930,933.283081 804.669495,930.822754 811.418884,927.965454 
	C829.810730,920.179565 848.100525,912.151550 866.520386,904.433228 
	C880.742798,898.473633 895.129822,892.908142 909.388916,887.034302 
	C920.165344,882.595154 930.818970,877.858154 941.591370,873.408936 
	C962.244141,864.878723 982.955078,856.489258 1003.615601,847.977844 
	C1011.436035,844.756104 1019.184021,841.358643 1027.034912,837.068604 
	C1022.942261,836.742554 1018.851685,836.163879 1014.756470,836.128479 
	C956.263000,835.623535 897.767944,835.296570 839.275452,834.704712 
	C802.449768,834.332153 765.627930,833.586853 728.804199,833.014587 
	C721.086487,832.894653 720.445679,831.901611 719.899109,824.437988 
	C719.332275,816.696594 717.886841,809.023071 716.965027,801.303284 
	C715.215881,786.653076 713.585754,771.988647 711.869568,757.334412 
	C710.271484,743.687866 708.639038,730.045227 706.993042,716.404297 
	C706.471252,712.079834 708.175659,710.797058 712.604980,710.800171 
	C916.928894,710.944580 1121.252808,710.961914 1325.576782,711.004761 
	C1331.376343,711.005981 1332.409790,711.939087 1331.845215,717.760559 
	C1330.418945,732.464783 1328.642944,747.135437 1327.246948,761.842285 
	C1326.571411,768.958618 1326.713257,776.154114 1325.998169,783.264771 
	C1324.458862,798.573059 1322.549927,813.843933 1320.921631,829.143921 
	C1320.572144,832.427429 1319.326294,834.585754 1316.167114,835.921387 
	C1288.328491,847.691467 1260.508789,859.507080 1232.725464,871.407471 
	C1215.011963,878.994751 1197.404053,886.828979 1179.683960,894.400757 
	C1167.066284,899.792358 1154.277954,904.785706 1141.678223,910.217651 
	C1123.663452,917.984253 1105.787109,926.072144 1087.780518,933.857971 
	C1078.604614,937.825317 1069.236084,941.344360 1060.023315,945.229065 
	C1051.783569,948.703491 1043.638184,952.401733 1035.451172,956.001282 
	C1035.489746,956.556152 1035.528198,957.111023 1035.566772,957.665833 
	C1126.484497,959.021667 1217.402344,960.377502 1309.167480,961.745911 
	C1308.773071,966.380066 1308.385254,970.260742 1308.121460,974.149902 
	C1306.728394,994.704285 1305.669067,1015.286865 1303.899658,1035.808472 
	C1302.432251,1052.826660 1299.973877,1069.757446 1298.286377,1086.759766 
	C1297.482056,1094.864746 1297.736816,1103.072144 1297.004150,1111.187378 
	C1295.603760,1126.699463 1293.691284,1142.165283 1292.287964,1157.677002 
	C1291.553589,1165.794067 1291.702271,1173.989746 1291.006348,1182.111816 
	C1289.603760,1198.481323 1287.827148,1214.818481 1286.332520,1231.180664 
	C1284.488892,1251.362915 1282.816772,1271.560791 1280.990723,1291.744629 
	C1279.780396,1305.122803 1278.130249,1318.468628 1277.252563,1331.866699 
	C1276.702515,1340.260498 1271.052368,1342.245972 1264.570190,1343.982544 
	C1256.029175,1346.270752 1247.519165,1348.677734 1239.018799,1351.114014 
	C1228.750244,1354.057129 1218.498413,1357.059570 1208.252563,1360.081177 
	C1196.605347,1363.515747 1184.991211,1367.063477 1173.328369,1370.443604 
	C1163.093750,1373.409790 1152.787231,1376.128296 1142.558594,1379.113281 
	C1134.355591,1381.507202 1126.259277,1384.268188 1118.047241,1386.628540 
	C1107.806274,1389.572144 1097.456909,1392.140259 1087.225830,1395.115967 
	C1078.223999,1397.734253 1069.374756,1400.881226 1060.360229,1403.451172 
	C1048.323486,1406.882690 1036.219116,1410.089600 1024.076050,1413.121826 
	C1021.974609,1413.646484 1019.428406,1413.201416 1017.273376,1412.570312 
	C1001.650208,1407.994019 986.106567,1403.145142 970.471375,1398.611084 
	C961.822083,1396.102661 952.989990,1394.224243 944.340332,1391.716919 
	C935.184326,1389.062866 926.188660,1385.858032 917.045898,1383.154785 
	C908.270386,1380.560059 899.359985,1378.422852 890.575134,1375.857910 
	C881.737061,1373.277344 873.008484,1370.322998 864.180603,1367.705688 
	C855.079041,1365.007202 845.874939,1362.651855 836.790588,1359.899170 
	C827.516418,1357.089111 818.371033,1353.854736 809.100769,1351.031006 
	C797.755371,1347.575195 786.419434,1344.027710 774.916687,1341.176392 
	C769.675720,1339.877075 767.439209,1337.240601 766.972900,1332.170776 
	C765.710022,1318.438843 764.182251,1304.731079 762.965332,1290.995483 
	C761.192444,1270.983887 759.701965,1250.947021 757.900269,1230.938110 
	C756.218262,1212.258911 754.025940,1193.622192 752.581299,1174.926514 
	C751.906433,1166.192505 752.465881,1157.363159 752.465881,1147.322876 
	C759.896362,1147.322876 767.334656,1147.288452 774.772583,1147.328857 
	C807.098572,1147.504517 839.424377,1147.786865 871.750244,1147.789429 
	C876.034851,1147.789795 877.710815,1149.329712 878.032715,1153.297485 
	C878.986084,1165.046509 879.954712,1176.794922 881.037109,1188.532471 
	C882.623047,1205.729858 884.330811,1222.915771 885.946045,1240.110474 
	C886.352844,1244.440552 887.605286,1246.545410 892.901123,1247.400146 
	C903.392578,1249.093384 913.566772,1252.692871 923.920959,1255.311646 
	C934.606567,1258.014282 945.370178,1260.408203 956.062439,1263.085693 
	C965.801453,1265.524414 975.473816,1268.229004 985.207520,1270.690308 
	C992.698181,1272.584473 1000.243225,1274.262329 1007.753418,1276.080688 
	C1010.159180,1276.663208 1012.500366,1277.772217 1014.924316,1277.962402 
	C1019.123901,1278.291992 1023.563232,1278.915649 1027.550293,1277.955566 
	C1038.095093,1275.416626 1048.445190,1272.073364 1058.885376,1269.094604 
	C1065.337158,1267.253784 1071.807861,1265.479248 1078.277344,1263.701416 
	C1086.502686,1261.440796 1094.752930,1259.269165 1102.960449,1256.945923 
	C1113.384644,1253.995117 1123.773315,1250.919922 1134.183838,1247.920654 
	C1138.610596,1246.645264 1143.010620,1245.236206 1147.497559,1244.218506 
	C1158.761108,1241.663818 1161.205688,1239.196899 1161.900513,1228.097412 
	C1163.667114,1199.874756 1165.199585,1171.637207 1167.021118,1143.418091 
	C1168.145508,1125.997314 1169.545288,1108.592651 1170.986328,1091.194458 
	C1171.662598,1083.030273 1171.838623,1083.072632 1163.690674,1083.001831 
	C1108.367798,1082.521240 1053.044922,1082.027832 997.247437,1081.532227 
z"/>
</svg>